<svg width="1320" height="760" viewBox="0 0 1320 760" xmlns="http://www.w3.org/2000/svg" style="background:#ffffff;font-family:Inter,Segoe UI,Roboto,Helvetica,Arial,sans-serif">
  <defs>
    <marker id="arrow" viewBox="0 0 10 10" refX="8" refY="5" markerWidth="7" markerHeight="7" orient="auto">
      <path d="M2 1L8 5L2 9" fill="none" stroke="context-stroke" stroke-width="1.6" stroke-linecap="round" stroke-linejoin="round"/>
    </marker>
    <style>
      .title {
        font-size: 24px;
        font-weight: 700;
        fill: #1f2937;
      }
      .group-title {
        font-size: 15px;
        font-weight: 700;
        fill: #4b5563;
      }
      .box-title {
        font-size: 18px;
        font-weight: 700;
        fill: #1f2937;
      }
      .box-sub {
        font-size: 13.5px;
        font-weight: 500;
        fill: #4b5563;
      }
      .edge {
        fill: none;
        stroke: #6b7280;
        stroke-width: 1.6;
        stroke-linecap: round;
        stroke-linejoin: round;
        marker-end: url(#arrow);
      }
      .edge-label {
        font-size: 12.5px;
        font-weight: 600;
        fill: #374151;
      }
      .panel {
        fill: #fafafa;
        stroke: #d7dce3;
        stroke-width: 1;
      }
    </style>
  </defs>

  <text x="660" y="38" text-anchor="middle" class="title">Oreulius WASM Integration Map</text>

  <!-- Panels -->
  <rect x="60" y="100" width="300" height="560" rx="20" class="panel"/>
  <text x="84" y="128" class="group-title">wasm/</text>

  <rect x="420" y="100" width="490" height="560" rx="20" class="panel"/>
  <text x="444" y="128" class="group-title">kernel/src/</text>

  <rect x="970" y="100" width="290" height="560" rx="20" class="panel"/>
  <text x="994" y="128" class="group-title">Kernel subsystems</text>

  <!-- Left nodes -->
  <rect x="95" y="180" width="220" height="122" rx="16" fill="#F8F0FF" stroke="#8B5CF6" stroke-width="1.2"/>
  <text x="205" y="216" text-anchor="middle" class="box-title">.wat demos</text>
  <text x="205" y="246" text-anchor="middle" class="box-sub">hello · echo · poll</text>
  <text x="205" y="272" text-anchor="middle" class="box-sub">spawn · thread</text>

  <rect x="95" y="420" width="220" height="122" rx="16" fill="#EEF4FF" stroke="#3B82F6" stroke-width="1.2"/>
  <text x="205" y="456" text-anchor="middle" class="box-title">sdk/</text>
  <text x="205" y="486" text-anchor="middle" class="box-sub">oreulius-sdk</text>
  <text x="205" y="512" text-anchor="middle" class="box-sub">Rust bindings</text>

  <!-- Center node -->
  <rect x="505" y="295" width="320" height="175" rx="20" fill="#EEEDFE" stroke="#534AB7" stroke-width="1.3"/>
  <text x="665" y="336" text-anchor="middle" class="box-title">wasm.rs</text>
  <text x="665" y="372" text-anchor="middle" class="box-sub">19 536 lines</text>
  <text x="665" y="406" text-anchor="middle" class="box-sub">WasmInterpreter</text>
  <text x="665" y="440" text-anchor="middle" class="box-sub">call_host_fn()</text>

  <!-- Right nodes -->
  <rect x="1005" y="150" width="220" height="90" rx="16" fill="#FAECE7" stroke="#993C1D" stroke-width="1.2"/>
  <text x="1115" y="183" text-anchor="middle" class="box-title">capability/</text>
  <text x="1115" y="210" text-anchor="middle" class="box-sub">capability objects</text>

  <rect x="1005" y="280" width="220" height="90" rx="16" fill="#FAEEDA" stroke="#854F0B" stroke-width="1.2"/>
  <text x="1115" y="313" text-anchor="middle" class="box-title">ipc/</text>
  <text x="1115" y="340" text-anchor="middle" class="box-sub">channel_open / send / recv</text>

  <rect x="1005" y="410" width="220" height="90" rx="16" fill="#EEF7F2" stroke="#0F766E" stroke-width="1.2"/>
  <text x="1115" y="443" text-anchor="middle" class="box-title">temporal/</text>
  <text x="1115" y="470" text-anchor="middle" class="box-sub">checkpoint / rollback</text>

  <rect x="1005" y="540" width="220" height="90" rx="16" fill="#F3F4F6" stroke="#6B7280" stroke-width="1.2"/>
  <text x="1115" y="573" text-anchor="middle" class="box-title">drivers/</text>
  <text x="1115" y="600" text-anchor="middle" class="box-sub">compositor · input · audio</text>

  <!-- Left -> center connectors -->
  <path d="M315 241 L420 241 L420 340 L505 340" class="edge"/>
  <text x="332" y="226" class="edge-label">loaded by shell</text>
  <text x="332" y="243" class="edge-label">cmd 'wasm *.wasm'</text>

  <path d="M315 481 L420 481 L420 425 L505 425" class="edge"/>
  <text x="332" y="466" class="edge-label">compiled to .wasm</text>
  <text x="332" y="483" class="edge-label">loaded same way</text>

  <!-- Right-side routing spine -->
  <!-- capability -->
  <path d="M825 330 L930 330 L930 195 L1005 195" class="edge"/>
  <text x="845" y="314" class="edge-label">host fn 0–3</text>
  <text x="845" y="331" class="edge-label">capability_*</text>

  <!-- ipc -->
  <path d="M825 360 L948 360 L948 325 L1005 325" class="edge"/>
  <text x="845" y="349" class="edge-label">host fn 4–7</text>
  <text x="845" y="366" class="edge-label">channel_*</text>

  <!-- temporal -->
  <path d="M825 390 L948 390 L948 455 L1005 455" class="edge"/>
  <text x="845" y="409" class="edge-label">host fn 116–120</text>
  <text x="845" y="426" class="edge-label">temporal_cap_*</text>

  <!-- drivers -->
  <path d="M825 420 L930 420 L930 585 L1005 585" class="edge"/>
  <text x="845" y="445" class="edge-label">host fn 28–37</text>
  <text x="845" y="462" class="edge-label">compositor_*</text>
</svg>