<svg width="1120" height="760" viewBox="0 0 1120 760" xmlns="http://www.w3.org/2000/svg" style="background:#ffffff;font-family:Inter,Segoe UI,Roboto,Helvetica,Arial,sans-serif">
  <defs>
    <marker id="arrow" viewBox="0 0 10 10" refX="8" refY="5" markerWidth="7" markerHeight="7" orient="auto">
      <path d="M2 1L8 5L2 9" fill="none" stroke="context-stroke" stroke-width="1.6" stroke-linecap="round" stroke-linejoin="round"/>
    </marker>
    <style>
      .title {
        font-size: 22px;
        font-weight: 700;
        fill: #1f2937;
      }
      .group-title {
        font-size: 14px;
        font-weight: 700;
        fill: #4b5563;
        letter-spacing: 0.02em;
      }
      .box-title {
        font-size: 17px;
        font-weight: 700;
        fill: #1f2937;
      }
      .box-sub {
        font-size: 13px;
        font-weight: 500;
        fill: #4b5563;
      }
      .edge {
        fill: none;
        stroke: #6b7280;
        stroke-width: 1.6;
        stroke-linecap: round;
        stroke-linejoin: round;
        marker-end: url(#arrow);
      }
      .panel {
        fill: #fafafa;
        stroke: #d7dce3;
        stroke-width: 1;
      }
    </style>
  </defs>

  <text x="560" y="34" text-anchor="middle" class="title">Oreulius WASM SDK and Kernel ABI</text>

  <!-- App -->
  <rect x="365" y="70" width="390" height="84" rx="16" fill="#EEEDFE" stroke="#534AB7" stroke-width="1.2"/>
  <text x="560" y="103" text-anchor="middle" class="box-title">Your WASM app</text>
  <text x="560" y="128" text-anchor="middle" class="box-sub">#![no_std] · _start()</text>

  <!-- SDK group -->
  <rect x="80" y="205" width="960" height="235" rx="18" class="panel"/>
  <text x="106" y="230" class="group-title">wasm/sdk — oreulius-sdk crate</text>

  <rect x="125" y="265" width="560" height="125" rx="16" fill="#EEF4FF" stroke="#3B82F6" stroke-width="1.2"/>
  <text x="405" y="295" text-anchor="middle" class="box-title">High-level modules</text>
  <text x="405" y="322" text-anchor="middle" class="box-sub">io · process · temporal · ipc</text>
  <text x="405" y="345" text-anchor="middle" class="box-sub">fs · net · thread · time</text>
  <text x="405" y="368" text-anchor="middle" class="box-sub">capgraph · entangle · observer</text>
  <text x="405" y="391" text-anchor="middle" class="box-sub">policy · polyglot · mesh</text>

  <rect x="735" y="265" width="250" height="125" rx="16" fill="#F8F0FF" stroke="#8B5CF6" stroke-width="1.2"/>
  <text x="860" y="295" text-anchor="middle" class="box-title">raw/</text>
  <text x="860" y="325" text-anchor="middle" class="box-sub">oreulius.rs — Oreulius native imports</text>
  <text x="860" y="352" text-anchor="middle" class="box-sub">wasi.rs — WASI Preview 1 imports</text>

  <!-- Kernel ABI group -->
  <rect x="145" y="495" width="830" height="200" rx="18" class="panel"/>
  <text x="171" y="520" class="group-title">Kernel host ABI (kernel/src/wasm.rs)</text>

  <rect x="195" y="560" width="310" height="92" rx="16" fill="#FAEEDA" stroke="#854F0B" stroke-width="1.2"/>
  <text x="350" y="590" text-anchor="middle" class="box-title">WASI Preview 1</text>
  <text x="350" y="618" text-anchor="middle" class="box-sub">IDs 45–90</text>
  <text x="350" y="641" text-anchor="middle" class="box-sub">wasi_snapshot_preview1</text>

  <rect x="615" y="560" width="310" height="92" rx="16" fill="#FAECE7" stroke="#993C1D" stroke-width="1.2"/>
  <text x="770" y="590" text-anchor="middle" class="box-title">Oreulius native</text>
  <text x="770" y="618" text-anchor="middle" class="box-sub">IDs 0–44, 100–131</text>
  <text x="770" y="641" text-anchor="middle" class="box-sub">import module: "oreulius"</text>

  <!-- Connections -->
  <path d="M560 154 L560 205 L405 205 L405 265" class="edge"/>
  <path d="M405 390 L405 420 L860 420 L860 265" class="edge"/>
  <path d="M860 390 L860 525 L350 525 L350 560" class="edge"/>
  <path d="M860 390 L860 560 L770 560" class="edge"/>

  <!-- Small connector labels -->
  <text x="575" y="188" class="box-sub">uses SDK surface</text>
  <text x="610" y="413" class="box-sub">compiled down to raw imports</text>
  <text x="463" y="548" class="box-sub">WASI bindings</text>
  <text x="866" y="505" class="box-sub">native Oreulius bindings</text>
</svg>