<svg width="1040" height="760" viewBox="0 0 1040 760" xmlns="http://www.w3.org/2000/svg" style="background:#ffffff;font-family:Inter,Segoe UI,Roboto,Helvetica,Arial,sans-serif">
  <defs>
    <marker id="arrow" viewBox="0 0 10 10" refX="8" refY="5" markerWidth="7" markerHeight="7" orient="auto">
      <path d="M2 1L8 5L2 9" fill="none" stroke="context-stroke" stroke-width="1.6" stroke-linecap="round" stroke-linejoin="round"/>
    </marker>
    <style>
      .title {
        font-size: 24px;
        font-weight: 700;
        fill: #1f2937;
      }
      .panel {
        fill: #fafafa;
        stroke: #d7dce3;
        stroke-width: 1;
      }
      .node-title {
        font-size: 18px;
        font-weight: 700;
      }
      .node-sub {
        font-size: 13px;
        font-weight: 500;
        fill: #4b5563;
      }
      .edge {
        fill: none;
        stroke: #6b7280;
        stroke-width: 1.6;
        stroke-linecap: round;
        stroke-linejoin: round;
        marker-end: url(#arrow);
      }
      .edge-label {
        font-size: 12.5px;
        font-weight: 600;
        fill: #374151;
      }
      .small-label {
        font-size: 12px;
        font-weight: 600;
        fill: #4b5563;
      }
    </style>
  </defs>

  <text x="520" y="38" text-anchor="middle" class="title">Oreulia Capability Authority Flow</text>

  <rect x="70" y="70" width="900" height="640" rx="18" class="panel"/>

  <!-- Main vertical spine -->
  <rect x="305" y="95" width="430" height="84" rx="16" fill="#EEEDFE" stroke="#534AB7" stroke-width="1.2"/>
  <text x="520" y="128" text-anchor="middle" class="node-title" fill="#26215C">Kernel / PID 0</text>
  <text x="520" y="151" text-anchor="middle" class="node-sub">capability_manager.grant_capability</text>

  <rect x="285" y="240" width="470" height="98" rx="16" fill="#EEF4FF" stroke="#3B82F6" stroke-width="1.2"/>
  <text x="520" y="275" text-anchor="middle" class="node-title" fill="#1E3A8A">Task capability table</text>
  <text x="520" y="301" text-anchor="middle" class="node-sub">pid=N, slot idx, SipHash token</text>

  <rect x="285" y="400" width="470" height="98" rx="16" fill="#F8F0FF" stroke="#8B5CF6" stroke-width="1.2"/>
  <text x="520" y="435" text-anchor="middle" class="node-title" fill="#6D28D9">Attenuated child cap</text>
  <text x="520" y="461" text-anchor="middle" class="node-sub">parent_cap_id = original</text>

  <rect x="285" y="560" width="470" height="98" rx="16" fill="#FAECE7" stroke="#993C1D" stroke-width="1.2"/>
  <text x="520" y="595" text-anchor="middle" class="node-title" fill="#7C2D12">Delegatee table</text>
  <text x="520" y="621" text-anchor="middle" class="node-sub">pid=M</text>

  <!-- Right validation branch -->
  <rect x="790" y="243" width="170" height="76" rx="16" fill="#EEF7F2" stroke="#0F766E" stroke-width="1.2"/>
  <text x="875" y="288" text-anchor="middle" style="font-size:16px;font-weight:700;fill:#065F46;">Syscall access granted</text>

  <!-- Left graph branch -->
  <rect x="80" y="560" width="170" height="88" rx="16" fill="#FAEEDA" stroke="#854F0B" stroke-width="1.2"/>
  <text x="165" y="593" text-anchor="middle" class="node-title" fill="#854F0B">CapGraph edge</text>
  <text x="165" y="619" text-anchor="middle" class="node-sub">delegation DAG</text>

  <rect x="80" y="405" width="170" height="88" rx="16" fill="#F3F4F6" stroke="#6B7280" stroke-width="1.2"/>
  <text x="165" y="438" text-anchor="middle" class="node-title" fill="#374151">Prune edges</text>
  <text x="165" y="464" text-anchor="middle" class="node-sub">orphan edge removal</text>

  <!-- Main spine edges -->
  <path d="M520 179 L520 240" class="edge"/>
  <text x="535" y="214" class="edge-label">install signed cap</text>

  <path d="M520 338 L520 400" class="edge"/>
  <text x="535" y="360" class="edge-label">attenuate_capability</text>
  <text x="535" y="378" class="small-label">new_rights ⊆ old_rights</text>

  <path d="M520 498 L520 560" class="edge"/>
  <text x="535" y="520" class="edge-label">transfer_capability</text>
  <text x="535" y="538" class="small-label">pid=N → pid=M</text>

  <!-- Right branch -->
  <path d="M755 281 L790 281" class="edge"/>

  <!-- Left branch from delegatee to graph -->
  <path d="M285 604 L250 604" class="edge"/>

  <!-- Graph to prune -->
  <path d="M165 560 L165 493" class="edge"/>
  <text x="180" y="528" class="edge-label">revoke_capability</text>
</svg>