<svg width="680" viewBox="0 0 680 860" xmlns="http://www.w3.org/2000/svg" style="background:#ffffff;font-family:sans-serif">
<defs>
  <marker id="arrow" viewBox="0 0 10 10" refX="8" refY="5" markerWidth="6" markerHeight="6" orient="auto-start-reverse">
    <path d="M2 1L8 5L2 9" fill="none" stroke="context-stroke" stroke-width="1.5" stroke-linecap="round" stroke-linejoin="round"/>
  </marker>
  <style>
    .th { font-size:14px; font-weight:600; fill:#1a1a1a; }
    .ts { font-size:12px; font-weight:400; fill:#555555; }
    .lifeline { stroke:#cccccc; stroke-width:0.5; stroke-dasharray:4 4; }
    .arr { stroke:#555555; stroke-width:1; fill:none; }
  </style>
</defs>

<!-- Participant: Kernel -->
<rect x="22" y="24" width="136" height="48" rx="8" fill="#EEE0F8" stroke="#9B59C5" stroke-width="0.5"/>
<text class="th" x="90" y="44" text-anchor="middle" dominant-baseline="central" fill="#5B1E8A">Oreulia Kernel</text>
<text class="ts" x="90" y="62" text-anchor="middle" dominant-baseline="central" fill="#8540B2">Ring-0</text>

<!-- Participant: TELEMETRY_RING -->
<rect x="186" y="24" width="136" height="48" rx="8" fill="#D8F5EC" stroke="#0E7A56" stroke-width="0.5"/>
<text class="th" x="254" y="44" text-anchor="middle" dominant-baseline="central" fill="#085041">TELEMETRY_RING</text>
<text class="ts" x="254" y="62" text-anchor="middle" dominant-baseline="central" fill="#0F6E56">wait-free</text>

<!-- Participant: QEMU COM2 -->
<rect x="350" y="24" width="136" height="48" rx="8" fill="#F0F0EE" stroke="#888780" stroke-width="0.5"/>
<text class="th" x="418" y="44" text-anchor="middle" dominant-baseline="central" fill="#2C2C2A">QEMU COM2</text>
<text class="ts" x="418" y="62" text-anchor="middle" dominant-baseline="central" fill="#5F5E5A">UART → UNIX socket</text>

<!-- Participant: telemetry_daemon -->
<rect x="514" y="24" width="144" height="48" rx="8" fill="#FAECE7" stroke="#993C1D" stroke-width="0.5"/>
<text class="th" x="586" y="44" text-anchor="middle" dominant-baseline="central" fill="#4A1B0C">telemetry_daemon</text>
<text class="ts" x="586" y="62" text-anchor="middle" dominant-baseline="central" fill="#993C1D">Host userspace</text>

<!-- Lifelines -->
<line x1="90"  y1="72" x2="90"  y2="840" class="lifeline"/>
<line x1="254" y1="72" x2="254" y2="840" class="lifeline"/>
<line x1="418" y1="72" x2="418" y2="840" class="lifeline"/>
<line x1="586" y1="72" x2="586" y2="840" class="lifeline"/>

<!-- Message 1: K → R -->
<line x1="90" y1="120" x2="248" y2="120" class="arr" marker-end="url(#arrow)"/>
<text class="ts" x="170" y="112" text-anchor="middle">Push TelemetryEvent</text>
<text class="ts" x="170" y="132" text-anchor="middle" fill="#888">16-byte, packed</text>

<!-- Message 2: R → Q -->
<line x1="260" y1="165" x2="412" y2="165" class="arr" marker-end="url(#arrow)"/>
<text class="ts" x="336" y="157" text-anchor="middle">Drain ring, serialize</text>
<text class="ts" x="336" y="177" text-anchor="middle" fill="#888">over serial port</text>

<!-- Message 3: Q → D -->
<line x1="424" y1="210" x2="580" y2="210" class="arr" marker-end="url(#arrow)"/>
<text class="ts" x="502" y="202" text-anchor="middle">UdsTelemetryQueue</text>
<text class="ts" x="502" y="222" text-anchor="middle" fill="#888">reads event stream</text>

<!-- Note block: daemon analysis -->
<rect x="490" y="240" width="170" height="128" rx="6" fill="#FFFBF5" stroke="#CCCCCC" stroke-width="0.5"/>
<polygon points="644,240 660,256 644,256" fill="#DDDDDD"/>
<line x1="644" y1="240" x2="644" y2="256" stroke="#CCCCCC" stroke-width="0.5"/>
<line x1="644" y1="256" x2="660" y2="256" stroke="#CCCCCC" stroke-width="0.5"/>
<text class="ts" x="502" y="262" dominant-baseline="central">Per-PID 9×9 Q-matrix update</text>
<text class="ts" x="502" y="283" dominant-baseline="central">P(t) = P(0)·e^(Qt)</text>
<text class="ts" x="502" y="298" dominant-baseline="central" fill="#888">[3/3 Padé §3.1]</text>
<text class="ts" x="502" y="318" dominant-baseline="central">Power-iteration → π</text>
<text class="ts" x="502" y="334" dominant-baseline="central" fill="#888">[§11.2]</text>
<text class="ts" x="502" y="354" dominant-baseline="central">Fiedler spectral gap</text>
<text class="ts" x="502" y="370" dominant-baseline="central" fill="#888">[§11.2]</text>

<!-- Alt frame -->
<rect x="26" y="410" width="636" height="396" rx="6" fill="none" stroke="#AAAAAA" stroke-width="0.5"/>
<rect x="26" y="410" width="44" height="22" rx="4" fill="#F5F5F5" stroke="#AAAAAA" stroke-width="0.5"/>
<text x="48" y="425" text-anchor="middle" dominant-baseline="central" font-size="13" font-weight="600" fill="#333">alt</text>

<!-- Branch 1: anomaly -->
<rect x="26" y="432" width="636" height="18" fill="#F9F9F9"/>
<text class="ts" x="40" y="441" dominant-baseline="central" fill="#777">[P_anomaly &gt; 0.60 — anomaly detected]</text>

<!-- D → Q: CapabilityRevokeForPid -->
<line x1="580" y1="474" x2="424" y2="474" class="arr" marker-end="url(#arrow)"/>
<text class="ts" x="502" y="465" text-anchor="middle">CapabilityRevokeForPid</text>
<text class="ts" x="502" y="484" text-anchor="middle" fill="#888">syscall 43, pid, cap_id=0</text>

<!-- Q → K: back-channel -->
<line x1="412" y1="520" x2="96" y2="520" class="arr" marker-end="url(#arrow)"/>
<text class="ts" x="254" y="512" text-anchor="middle">COM2 back-channel read</text>

<!-- K self-arrow: revoke -->
<path d="M90 548 Q46 548 46 570 Q46 592 90 592" fill="none" stroke="#555555" stroke-width="1" marker-end="url(#arrow)"/>
<text class="ts" x="106" y="562" dominant-baseline="central">Revoke ALL caps</text>
<text class="ts" x="106" y="578" dominant-baseline="central" fill="#888">for target PID</text>

<!-- Divider -->
<line x1="26" y1="614" x2="662" y2="614" stroke="#BBBBBB" stroke-width="0.5" stroke-dasharray="4 4"/>

<!-- Branch 2: clean -->
<rect x="26" y="614" width="636" height="18" fill="#F9F9F9"/>
<text class="ts" x="40" y="623" dominant-baseline="central" fill="#777">[else — clean, within safe envelope]</text>

<!-- D self-arrow: sleep -->
<path d="M586 650 Q636 650 636 672 Q636 694 586 694" fill="none" stroke="#555555" stroke-width="1" marker-end="url(#arrow)"/>
<text class="ts" x="574" y="664" text-anchor="end" dominant-baseline="central">Sleep(f(γ))</text>
<text class="ts" x="574" y="680" text-anchor="end" dominant-baseline="central" fill="#888">until next cycle</text>

<!-- Bottom labels -->
<text class="ts" x="90"  y="830" text-anchor="middle" fill="#AAAAAA">K</text>
<text class="ts" x="254" y="830" text-anchor="middle" fill="#AAAAAA">R</text>
<text class="ts" x="418" y="830" text-anchor="middle" fill="#AAAAAA">Q</text>
<text class="ts" x="586" y="830" text-anchor="middle" fill="#AAAAAA">D</text>
</svg>