<svg width="1180" height="640" viewBox="0 0 1180 640" xmlns="http://www.w3.org/2000/svg" style="background:#ffffff;font-family:Inter,Segoe UI,Roboto,Helvetica,Arial,sans-serif">
  <defs>
    <marker id="arrow" viewBox="0 0 10 10" refX="8" refY="5" markerWidth="7" markerHeight="7" orient="auto">
      <path d="M2 1L8 5L2 9" fill="none" stroke="context-stroke" stroke-width="1.6" stroke-linecap="round" stroke-linejoin="round"/>
    </marker>
    <marker id="arrow-open" viewBox="0 0 10 10" refX="8" refY="5" markerWidth="7" markerHeight="7" orient="auto">
      <path d="M2 1L8 5L2 9" fill="none" stroke="context-stroke" stroke-width="1.4" stroke-linecap="round" stroke-linejoin="round"/>
    </marker>
    <style>
      .title {
        font-size: 20px;
        font-weight: 700;
        fill: #1f2937;
      }
      .participant-label {
        font-size: 14px;
        font-weight: 700;
        fill: #1f2937;
      }
      .participant-sub {
        font-size: 12.5px;
        font-weight: 500;
        fill: #4b5563;
      }
      .participant-box {
        stroke-width: 1;
      }
      .lifeline {
        stroke: #c9ced6;
        stroke-width: 1.2;
        stroke-dasharray: 7 6;
      }
      .msg {
        stroke: #6b7280;
        stroke-width: 1.6;
        fill: none;
        marker-end: url(#arrow);
      }
      .reply {
        stroke: #9aa1aa;
        stroke-width: 1.45;
        stroke-dasharray: 7 5;
        fill: none;
        marker-end: url(#arrow-open);
      }
      .self-msg {
        stroke: #6b7280;
        stroke-width: 1.6;
        fill: none;
        marker-end: url(#arrow);
      }
      .msg-text {
        font-size: 13px;
        font-weight: 500;
        fill: #374151;
      }
      .phase-box {
        fill: #fafafa;
        stroke: #d5dae1;
        stroke-width: 1;
      }
      .phase-text {
        font-size: 12px;
        font-weight: 700;
        fill: #4b5563;
      }
      .activation {
        fill: #e5e7eb;
        stroke: #9ca3af;
        stroke-width: 0.8;
      }
      .note-box {
        fill: #fff7ed;
        stroke: #f59e0b;
        stroke-width: 1;
      }
      .note-text {
        font-size: 12.5px;
        font-weight: 700;
        fill: #7c2d12;
      }
    </style>
  </defs>

  <text x="590" y="34" text-anchor="middle" class="title">Block and Wake-up Sequence</text>

  <!-- Participants -->
  <rect x="40" y="58" width="130" height="44" rx="10" fill="#eeedfe" stroke="#534ab7" class="participant-box"/>
  <text x="105" y="76" text-anchor="middle" class="participant-label">P</text>
  <text x="105" y="92" text-anchor="middle" class="participant-sub">Process (PID 2)</text>

  <rect x="255" y="58" width="120" height="44" rx="10" fill="#eef4ff" stroke="#3b82f6" class="participant-box"/>
  <text x="315" y="76" text-anchor="middle" class="participant-label">SVC</text>
  <text x="315" y="92" text-anchor="middle" class="participant-sub">IpcService</text>

  <rect x="460" y="50" width="210" height="60" rx="10" fill="#faece7" stroke="#993c1d" class="participant-box"/>
  <text x="565" y="71" text-anchor="middle" class="participant-label">CH</text>
  <text x="565" y="88" text-anchor="middle" class="participant-sub">Channel[1]</text>
  <text x="565" y="104" text-anchor="middle" class="participant-sub">n=4 (Saturated)</text>

  <rect x="755" y="58" width="150" height="44" rx="10" fill="#f3f4f6" stroke="#6b7280" class="participant-box"/>
  <text x="830" y="76" text-anchor="middle" class="participant-label">SCHED</text>
  <text x="830" y="92" text-anchor="middle" class="participant-sub">SliceScheduler</text>

  <rect x="990" y="58" width="150" height="44" rx="10" fill="#eefbf5" stroke="#10b981" class="participant-box"/>
  <text x="1065" y="76" text-anchor="middle" class="participant-label">R</text>
  <text x="1065" y="92" text-anchor="middle" class="participant-sub">Receiver (PID 8)</text>

  <!-- Lifelines -->
  <line x1="105" y1="102" x2="105" y2="595" class="lifeline"/>
  <line x1="315" y1="102" x2="315" y2="595" class="lifeline"/>
  <line x1="565" y1="110" x2="565" y2="595" class="lifeline"/>
  <line x1="830" y1="102" x2="830" y2="595" class="lifeline"/>
  <line x1="1065" y1="102" x2="1065" y2="595" class="lifeline"/>

  <!-- Phase containers -->
  <rect x="30" y="122" width="1120" height="185" rx="10" class="phase-box"/>
  <text x="46" y="141" class="phase-text">Phase 1 · Sender blocks on capacity</text>

  <rect x="30" y="326" width="1120" height="220" rx="10" class="phase-box"/>
  <text x="46" y="345" class="phase-text">Phase 2 · Receiver drains channel and wakes sender</text>

  <!-- Activations -->
  <rect x="309" y="145" width="12" height="365" rx="5" class="activation"/>
  <rect x="559" y="185" width="12" height="255" rx="5" class="activation"/>
  <rect x="824" y="230" width="12" height="140" rx="5" class="activation"/>

  <!-- Phase 1 -->
  <line x1="105" y1="150" x2="315" y2="150" class="msg"/>
  <text x="210" y="141" text-anchor="middle" class="msg-text">send(msg)</text>

  <line x1="315" y1="190" x2="565" y2="190" class="msg"/>
  <text x="440" y="181" text-anchor="middle" class="msg-text">lock → Saturated → Defer(WaitForCapacity)</text>

  <line x1="315" y1="230" x2="830" y2="230" class="msg"/>
  <text x="572" y="221" text-anchor="middle" class="msg-text">prepare_block_on(W_capacity(1), WaitingOnChannel)</text>

  <line x1="830" y1="270" x2="315" y2="270" class="reply"/>
  <text x="572" y="261" text-anchor="middle" class="msg-text">Ok(BlockOnPlan)</text>

  <path d="M315 292 h58 v28 h-58" class="self-msg"/>
  <text x="382" y="286" class="msg-text">release lock</text>

  <!-- Phase 2 -->
  <line x1="315" y1="352" x2="830" y2="352" class="msg"/>
  <text x="572" y="343" text-anchor="middle" class="msg-text">commit_block(plan)</text>

  <rect x="52" y="372" width="108" height="34" rx="9" class="note-box"/>
  <text x="106" y="393" text-anchor="middle" class="note-text">PID 2 suspended</text>

  <line x1="1065" y1="410" x2="315" y2="410" class="msg"/>
  <text x="690" y="401" text-anchor="middle" class="msg-text">recv_message_for_process(PID8, Channel1, buf)</text>

  <line x1="315" y1="450" x2="565" y2="450" class="msg"/>
  <text x="440" y="441" text-anchor="middle" class="msg-text">lock → Deliver → pop message</text>

  <line x1="565" y1="490" x2="830" y2="490" class="msg"/>
  <text x="697" y="481" text-anchor="middle" class="msg-text">wake_one_sender → wake PID 2</text>

  <rect x="52" y="508" width="108" height="34" rx="9" class="note-box"/>
  <text x="106" y="529" text-anchor="middle" class="note-text">PID 2 resumed</text>

  <line x1="105" y1="535" x2="315" y2="535" class="msg"/>
  <text x="210" y="526" text-anchor="middle" class="msg-text">retry loop → lock → Available → Commit</text>

  <line x1="315" y1="575" x2="105" y2="575" class="reply"/>
  <text x="210" y="566" text-anchor="middle" class="msg-text">Ok(())</text>
</svg>