<svg width="680" viewBox="0 0 680 580" xmlns="http://www.w3.org/2000/svg" style="background:#ffffff;font-family:sans-serif">
<defs>
  <marker id="arrow" viewBox="0 0 10 10" refX="8" refY="5" markerWidth="6" markerHeight="6" orient="auto-start-reverse">
    <path d="M2 1L8 5L2 9" fill="none" stroke="context-stroke" stroke-width="1.5" stroke-linecap="round" stroke-linejoin="round"/>
  </marker>
  <style>
    .th { font-size:14px; font-weight:600; fill:#1a1a1a; }
    .ts { font-size:12px; font-weight:400; fill:#555555; }
  </style>
</defs>

<!-- Tier 1: Processes -->
<rect x="100" y="30" width="140" height="44" rx="8" fill="#F1EFE8" stroke="#5F5E5A" stroke-width="0.5"/>
<text class="th" x="170" y="52" text-anchor="middle" dominant-baseline="central">Process A</text>

<rect x="440" y="30" width="140" height="44" rx="8" fill="#F1EFE8" stroke="#5F5E5A" stroke-width="0.5"/>
<text class="th" x="510" y="52" text-anchor="middle" dominant-baseline="central">Process B</text>

<!-- P1/P2 → IpcService -->
<path d="M170 74 L170 124 L299 124" fill="none" stroke="#888780" stroke-width="1" marker-end="url(#arrow)"/>
<text class="ts" x="200" y="115" text-anchor="middle">send_message</text>
<path d="M510 74 L510 124 L341 124" fill="none" stroke="#888780" stroke-width="1" marker-end="url(#arrow)"/>
<text class="ts" x="460" y="115" text-anchor="middle">recv_message</text>

<!-- Tier 2: IpcService -->
<rect x="270" y="104" width="140" height="44" rx="8" fill="#EEEDFE" stroke="#534AB7" stroke-width="0.5"/>
<text class="th" x="340" y="126" text-anchor="middle" dominant-baseline="central" fill="#26215C">IpcService</text>

<!-- IpcService → AdmissionControl + ChannelTable -->
<line x1="340" y1="148" x2="340" y2="194" stroke="#888780" stroke-width="1" marker-end="url(#arrow)"/>
<path d="M340 148 L340 170 L560 170 L560 194" fill="none" stroke="#888780" stroke-width="1" marker-end="url(#arrow)"/>

<!-- Tier 3a: AdmissionControl -->
<rect x="200" y="194" width="180" height="56" rx="8" fill="#E1F5EE" stroke="#0F6E56" stroke-width="0.5"/>
<text class="th" x="290" y="214" text-anchor="middle" dominant-baseline="central" fill="#04342C">Admission control</text>
<text class="ts" x="290" y="234" text-anchor="middle" dominant-baseline="central" fill="#0F6E56">admission.rs</text>

<!-- Tier 3b: ChannelTable -->
<rect x="480" y="194" width="160" height="56" rx="8" fill="#F1EFE8" stroke="#5F5E5A" stroke-width="0.5"/>
<text class="th" x="560" y="214" text-anchor="middle" dominant-baseline="central">ChannelTable</text>
<text class="ts" x="560" y="234" text-anchor="middle" dominant-baseline="central" fill="#888780">table.rs</text>

<!-- ChannelTable → Diagnostics -->
<line x1="560" y1="250" x2="560" y2="314" stroke="#888780" stroke-width="1" marker-end="url(#arrow)"/>

<!-- Diagnostics -->
<rect x="480" y="314" width="160" height="56" rx="8" fill="#F1EFE8" stroke="#5F5E5A" stroke-width="0.5"/>
<text class="th" x="560" y="334" text-anchor="middle" dominant-baseline="central">Diagnostics</text>
<text class="ts" x="560" y="354" text-anchor="middle" dominant-baseline="central" fill="#888780">diagnostics.rs</text>

<!-- ADM → Backpressure -->
<path d="M290 250 L290 314" fill="none" stroke="#888780" stroke-width="1" marker-end="url(#arrow)"/>

<rect x="200" y="314" width="180" height="56" rx="8" fill="#E1F5EE" stroke="#0F6E56" stroke-width="0.5"/>
<text class="th" x="290" y="334" text-anchor="middle" dominant-baseline="central" fill="#04342C">Backpressure policy</text>
<text class="ts" x="290" y="354" text-anchor="middle" dominant-baseline="central" fill="#0F6E56">backpressure.rs</text>

<!-- ADM → Security Check (left branch) -->
<path d="M200 222 L120 222 L120 314" fill="none" stroke="#888780" stroke-width="1" marker-end="url(#arrow)"/>

<rect x="40" y="314" width="160" height="56" rx="8" fill="#FAECE7" stroke="#993C1D" stroke-width="0.5"/>
<text class="th" x="120" y="332" text-anchor="middle" dominant-baseline="central" fill="#4A1B0C">Security check</text>
<text class="ts" x="120" y="352" text-anchor="middle" dominant-baseline="central" fill="#993C1D">predictive restriction</text>

<!-- ADM → Commit → Channel -->
<path d="M290 370 L290 430" fill="none" stroke="#888780" stroke-width="1" marker-end="url(#arrow)"/>
<text class="ts" x="308" y="406" dominant-baseline="central">Commit</text>

<rect x="200" y="430" width="180" height="56" rx="8" fill="#EEEDFE" stroke="#534AB7" stroke-width="0.5"/>
<text class="th" x="290" y="450" text-anchor="middle" dominant-baseline="central" fill="#26215C">Channel</text>
<text class="ts" x="290" y="470" text-anchor="middle" dominant-baseline="central" fill="#534AB7">channel.rs</text>

<!-- ADM → Defer → SliceScheduler -->
<path d="M380 350 L430 350 L430 450 L401 450" fill="none" stroke="#888780" stroke-width="1" marker-end="url(#arrow)"/>
<text class="ts" x="438" y="396" dominant-baseline="central">Defer</text>

<rect x="400" y="430" width="160" height="56" rx="8" fill="#FAEEDA" stroke="#854F0B" stroke-width="0.5"/>
<text class="th" x="480" y="450" text-anchor="middle" dominant-baseline="central" fill="#412402">SliceScheduler</text>
<text class="ts" x="480" y="470" text-anchor="middle" dominant-baseline="central" fill="#854F0B">BlockOnPlan</text>

<!-- ADM → Refuse → IpcError -->
<path d="M200 350 L80 350 L80 450 L119 450" fill="none" stroke="#888780" stroke-width="1" marker-end="url(#arrow)"/>
<text class="ts" x="88" y="396" dominant-baseline="central">Refuse</text>

<rect x="40" y="430" width="120" height="44" rx="8" fill="#FCEBEB" stroke="#A32D2D" stroke-width="0.5"/>
<text class="th" x="100" y="452" text-anchor="middle" dominant-baseline="central" fill="#501313">IpcError</text>

<!-- Legend -->
<rect x="40" y="536" width="12" height="12" rx="2" fill="#EEEDFE" stroke="#534AB7" stroke-width="0.5"/>
<text class="ts" x="58" y="542" dominant-baseline="central">Core IPC</text>
<rect x="130" y="536" width="12" height="12" rx="2" fill="#E1F5EE" stroke="#0F6E56" stroke-width="0.5"/>
<text class="ts" x="148" y="542" dominant-baseline="central">Policy</text>
<rect x="200" y="536" width="12" height="12" rx="2" fill="#FAECE7" stroke="#993C1D" stroke-width="0.5"/>
<text class="ts" x="218" y="542" dominant-baseline="central">Security</text>
<rect x="278" y="536" width="12" height="12" rx="2" fill="#FAEEDA" stroke="#854F0B" stroke-width="0.5"/>
<text class="ts" x="296" y="542" dominant-baseline="central">Scheduler</text>
<rect x="364" y="536" width="12" height="12" rx="2" fill="#FCEBEB" stroke="#A32D2D" stroke-width="0.5"/>
<text class="ts" x="382" y="542" dominant-baseline="central">Error</text>
<rect x="422" y="536" width="12" height="12" rx="2" fill="#F1EFE8" stroke="#5F5E5A" stroke-width="0.5"/>
<text class="ts" x="440" y="542" dominant-baseline="central">Infrastructure</text>
</svg>