<svg width="680" viewBox="0 0 680 380" xmlns="http://www.w3.org/2000/svg" style="background:#ffffff;font-family:sans-serif">
<defs>
  <marker id="arrow" viewBox="0 0 10 10" refX="8" refY="5" markerWidth="6" markerHeight="6" orient="auto-start-reverse">
    <path d="M2 1L8 5L2 9" fill="none" stroke="context-stroke" stroke-width="1.5" stroke-linecap="round" stroke-linejoin="round"/>
  </marker>
  <style>
    .th { font-size:14px; font-weight:600; fill:#1a1a1a; }
    .ts { font-size:12px; font-weight:400; fill:#555555; }
  </style>
</defs>

<!-- Channel (root) -->
<rect x="260" y="30" width="160" height="56" rx="8" fill="#EEEDFE" stroke="#534AB7" stroke-width="0.5"/>
<text class="th" x="340" y="50" text-anchor="middle" dominant-baseline="central" fill="#26215C">Channel</text>
<text class="ts" x="340" y="70" text-anchor="middle" dominant-baseline="central" fill="#534AB7">channel.rs</text>

<!-- Channel → RingBuffer -->
<path d="M340 86 L340 150" fill="none" stroke="#888780" stroke-width="1" marker-end="url(#arrow)"/>

<!-- Channel → WaitQueue receivers (left) -->
<path d="M260 58 L140 58 L140 150" fill="none" stroke="#888780" stroke-width="1" marker-end="url(#arrow)"/>

<!-- Channel → WaitQueue senders (right) -->
<path d="M420 58 L540 58 L540 150" fill="none" stroke="#888780" stroke-width="1" marker-end="url(#arrow)"/>

<!-- RingBuffer -->
<rect x="255" y="150" width="170" height="56" rx="8" fill="#E1F5EE" stroke="#0F6E56" stroke-width="0.5"/>
<text class="th" x="340" y="170" text-anchor="middle" dominant-baseline="central" fill="#04342C">RingBuffer</text>
<text class="ts" x="340" y="190" text-anchor="middle" dominant-baseline="central" fill="#0F6E56">ring.rs</text>

<!-- WaitQueue receivers -->
<rect x="50" y="150" width="180" height="56" rx="8" fill="#F1EFE8" stroke="#5F5E5A" stroke-width="0.5"/>
<text class="th" x="140" y="170" text-anchor="middle" dominant-baseline="central">WaitQueue</text>
<text class="ts" x="140" y="190" text-anchor="middle" dominant-baseline="central" fill="#888780">waiting_receivers</text>

<!-- WaitQueue senders -->
<rect x="450" y="150" width="180" height="56" rx="8" fill="#F1EFE8" stroke="#5F5E5A" stroke-width="0.5"/>
<text class="th" x="540" y="170" text-anchor="middle" dominant-baseline="central">WaitQueue</text>
<text class="ts" x="540" y="190" text-anchor="middle" dominant-baseline="central" fill="#888780">waiting_senders</text>

<!-- Channel → wake → SliceScheduler (right side) -->
<path d="M420 70 L600 70 L600 286 L601 286" fill="none" stroke="#888780" stroke-width="1" marker-end="url(#arrow)"/>
<text class="ts" x="630" y="180" text-anchor="end" dominant-baseline="central">wake</text>

<!-- Channel → record → TemporalLog (left side) — label on LEFT of the line -->
<path d="M260 70 L80 70 L80 286 L119 286" fill="none" stroke="#888780" stroke-width="1" marker-end="url(#arrow)"/>
<text class="ts" x="68" y="180" text-anchor="end" dominant-baseline="central">record</text>

<!-- SliceScheduler -->
<rect x="420" y="258" width="180" height="56" rx="8" fill="#FAEEDA" stroke="#854F0B" stroke-width="0.5"/>
<text class="th" x="510" y="276" text-anchor="middle" dominant-baseline="central" fill="#412402">SliceScheduler</text>
<text class="ts" x="510" y="296" text-anchor="middle" dominant-baseline="central" fill="#854F0B">BlockOnPlan</text>

<!-- TemporalLog -->
<rect x="40" y="258" width="180" height="56" rx="8" fill="#FAECE7" stroke="#993C1D" stroke-width="0.5"/>
<text class="th" x="130" y="276" text-anchor="middle" dominant-baseline="central" fill="#4A1B0C">Temporal log</text>
<text class="ts" x="130" y="296" text-anchor="middle" dominant-baseline="central" fill="#993C1D">temporal.rs</text>

<!-- Legend -->
<rect x="40" y="344" width="12" height="12" rx="2" fill="#EEEDFE" stroke="#534AB7" stroke-width="0.5"/>
<text class="ts" x="58" y="350" dominant-baseline="central">Core IPC</text>
<rect x="130" y="344" width="12" height="12" rx="2" fill="#E1F5EE" stroke="#0F6E56" stroke-width="0.5"/>
<text class="ts" x="148" y="350" dominant-baseline="central">Buffer</text>
<rect x="200" y="344" width="12" height="12" rx="2" fill="#F1EFE8" stroke="#5F5E5A" stroke-width="0.5"/>
<text class="ts" x="218" y="350" dominant-baseline="central">Queues</text>
<rect x="274" y="344" width="12" height="12" rx="2" fill="#FAEEDA" stroke="#854F0B" stroke-width="0.5"/>
<text class="ts" x="292" y="350" dominant-baseline="central">Scheduler</text>
<rect x="360" y="344" width="12" height="12" rx="2" fill="#FAECE7" stroke="#993C1D" stroke-width="0.5"/>
<text class="ts" x="378" y="350" dominant-baseline="central">Temporal log</text>
</svg>