<svg width="1280" height="760" viewBox="0 0 1280 760" xmlns="http://www.w3.org/2000/svg" style="background:#ffffff;font-family:Inter,Segoe UI,Roboto,Helvetica,Arial,sans-serif">
  <defs>
    <marker id="arrow" viewBox="0 0 10 10" refX="8" refY="5" markerWidth="7" markerHeight="7" orient="auto">
      <path d="M2 1L8 5L2 9" fill="none" stroke="context-stroke" stroke-width="1.6" stroke-linecap="round" stroke-linejoin="round"/>
    </marker>
    <marker id="arrow-open" viewBox="0 0 10 10" refX="8" refY="5" markerWidth="7" markerHeight="7" orient="auto">
      <path d="M2 1L8 5L2 9" fill="none" stroke="context-stroke" stroke-width="1.4" stroke-linecap="round" stroke-linejoin="round"/>
    </marker>
    <style>
      .title {
        font-size: 20px;
        font-weight: 700;
        fill: #1f2937;
      }
      .participant-label {
        font-size: 14px;
        font-weight: 700;
        fill: #1f2937;
      }
      .participant-box {
        stroke-width: 1;
      }
      .lifeline {
        stroke: #c7cbd1;
        stroke-width: 1.2;
        stroke-dasharray: 7 6;
      }
      .msg {
        stroke: #6b7280;
        stroke-width: 1.5;
        fill: none;
        marker-end: url(#arrow);
      }
      .reply {
        stroke: #9aa1aa;
        stroke-width: 1.4;
        stroke-dasharray: 7 5;
        fill: none;
        marker-end: url(#arrow-open);
      }
      .msg-text {
        font-size: 13px;
        font-weight: 500;
        fill: #374151;
      }
      .loop-frame {
        fill: #fafafa;
        stroke: #a8adb4;
        stroke-width: 1.2;
      }
      .loop-tab {
        fill: #f0f2f5;
        stroke: #a8adb4;
        stroke-width: 1.2;
      }
      .loop-label {
        font-size: 12px;
        font-weight: 700;
        fill: #374151;
      }
      .activation {
        fill: #e5e7eb;
        stroke: #9ca3af;
        stroke-width: 0.8;
        rx: 6;
      }
    </style>
  </defs>

  <!-- Title -->
  <text x="640" y="34" text-anchor="middle" class="title">Message Send Admission Sequence</text>

  <!-- Participant boxes -->
  <rect x="40" y="60" width="120" height="44" rx="10" fill="#eeedfe" stroke="#534ab7" class="participant-box"/>
  <text x="100" y="78" text-anchor="middle" class="participant-label">P</text>
  <text x="100" y="94" text-anchor="middle" class="msg-text">Process (PID 7)</text>

  <rect x="190" y="60" width="120" height="44" rx="10" fill="#eef4ff" stroke="#3b82f6" class="participant-box"/>
  <text x="250" y="78" text-anchor="middle" class="participant-label">SVC</text>
  <text x="250" y="94" text-anchor="middle" class="msg-text">IpcService</text>

  <rect x="340" y="60" width="120" height="44" rx="10" fill="#f8f0ff" stroke="#8b5cf6" class="participant-box"/>
  <text x="400" y="78" text-anchor="middle" class="participant-label">ADM</text>
  <text x="400" y="94" text-anchor="middle" class="msg-text">admission.rs</text>

  <rect x="490" y="60" width="120" height="44" rx="10" fill="#fff7ed" stroke="#f59e0b" class="participant-box"/>
  <text x="550" y="78" text-anchor="middle" class="participant-label">BP</text>
  <text x="550" y="94" text-anchor="middle" class="msg-text">backpressure.rs</text>

  <rect x="640" y="60" width="120" height="44" rx="10" fill="#faeeda" stroke="#854f0b" class="participant-box"/>
  <text x="700" y="78" text-anchor="middle" class="participant-label">SEC</text>
  <text x="700" y="94" text-anchor="middle" class="msg-text">SecurityService</text>

  <rect x="790" y="60" width="120" height="44" rx="10" fill="#faece7" stroke="#993c1d" class="participant-box"/>
  <text x="850" y="78" text-anchor="middle" class="participant-label">CH</text>
  <text x="850" y="94" text-anchor="middle" class="msg-text">Channel[3]</text>

  <rect x="940" y="60" width="120" height="44" rx="10" fill="#eefbf5" stroke="#10b981" class="participant-box"/>
  <text x="1000" y="78" text-anchor="middle" class="participant-label">RB</text>
  <text x="1000" y="94" text-anchor="middle" class="msg-text">RingBuffer</text>

  <rect x="1090" y="60" width="140" height="44" rx="10" fill="#f3f4f6" stroke="#6b7280" class="participant-box"/>
  <text x="1160" y="78" text-anchor="middle" class="participant-label">SCHED</text>
  <text x="1160" y="94" text-anchor="middle" class="msg-text">QuantumScheduler</text>

  <!-- Lifelines -->
  <line x1="100" y1="104" x2="100" y2="710" class="lifeline"/>
  <line x1="250" y1="104" x2="250" y2="710" class="lifeline"/>
  <line x1="400" y1="104" x2="400" y2="710" class="lifeline"/>
  <line x1="550" y1="104" x2="550" y2="710" class="lifeline"/>
  <line x1="700" y1="104" x2="700" y2="710" class="lifeline"/>
  <line x1="850" y1="104" x2="850" y2="710" class="lifeline"/>
  <line x1="1000" y1="104" x2="1000" y2="710" class="lifeline"/>
  <line x1="1160" y1="104" x2="1160" y2="710" class="lifeline"/>

  <!-- Activation bars -->
  <rect x="244" y="130" width="12" height="500" class="activation"/>
  <rect x="844" y="290" width="12" height="255" class="activation"/>

  <!-- P -> SVC -->
  <line x1="100" y1="150" x2="250" y2="150" class="msg"/>
  <text x="175" y="141" text-anchor="middle" class="msg-text">send_message_for_process(PID7, Channel3, data)</text>

  <!-- SVC -> SVC resolve -->
  <path d="M250 190 h55 v34 h-55" class="msg"/>
  <text x="318" y="183" class="msg-text">resolve_channel_capability(PID7, Channel3, Send)</text>
  <text x="318" y="201" class="msg-text">→ ChannelCapability</text>

  <!-- SVC -> SVC message stamp -->
  <path d="M250 245 h55 v34 h-55" class="msg"/>
  <text x="318" y="238" class="msg-text">Message::with_data(PID7, data)</text>
  <text x="318" y="256" class="msg-text">stamp EventId(7, 0, seq++)</text>

  <!-- Loop frame -->
  <rect x="215" y="300" width="995" height="275" class="loop-frame"/>
  <rect x="215" y="300" width="130" height="28" class="loop-tab"/>
  <text x="280" y="318" text-anchor="middle" class="loop-label">loop Admission loop</text>

  <!-- SVC -> CH -->
  <line x1="250" y1="350" x2="850" y2="350" class="msg"/>
  <text x="550" y="341" text-anchor="middle" class="msg-text">lock channel, observe_send_attempt → Available</text>

  <!-- CH -> SEC -->
  <line x1="850" y1="395" x2="700" y2="395" class="msg"/>
  <text x="775" y="386" text-anchor="middle" class="msg-text">is_predictively_restricted? → false</text>

  <!-- CH -> ADM -->
  <line x1="850" y1="440" x2="400" y2="440" class="msg"/>
  <text x="625" y="431" text-anchor="middle" class="msg-text">evaluate_send(channel, cap) → Commit</text>

  <!-- CH -> RB -->
  <line x1="850" y1="485" x2="1000" y2="485" class="msg"/>
  <text x="925" y="476" text-anchor="middle" class="msg-text">enqueue(message) → Ok</text>

  <!-- CH -> SCHED -->
  <line x1="850" y1="530" x2="1160" y2="530" class="msg"/>
  <text x="1005" y="521" text-anchor="middle" class="msg-text">wake_one_receiver (if any blocked)</text>

  <!-- CH -> SVC -->
  <line x1="850" y1="570" x2="250" y2="570" class="msg"/>
  <text x="550" y="561" text-anchor="middle" class="msg-text">Ok(())</text>

  <!-- SVC -->
  <line x1="250" y1="620" x2="100" y2="620" class="reply"/>
  <text x="175" y="611" text-anchor="middle" class="msg-text">Ok(())</text>
</svg>