<svg width="680" viewBox="0 0 680 1100" xmlns="http://www.w3.org/2000/svg" style="background:#ffffff;font-family:sans-serif">
<defs>
  <marker id="arrow" viewBox="0 0 10 10" refX="8" refY="5" markerWidth="6" markerHeight="6" orient="auto-start-reverse">
    <path d="M2 1L8 5L2 9" fill="none" stroke="context-stroke" stroke-width="1.5" stroke-linecap="round" stroke-linejoin="round"/>
  </marker>
  <style>
    .th { font-size:14px; font-weight:600; }
    .ts { font-size:12px; font-weight:400; fill:#555555; }
    .lifeline { stroke:#dddddd; stroke-width:1; stroke-dasharray:5 4; }
    .solid { stroke:#666660; stroke-width:1.2; fill:none; }
    .dashed { stroke:#666660; stroke-width:1.2; fill:none; stroke-dasharray:6 3; }
  </style>
</defs>

<!-- ── Participant boxes ── -->
<rect x="18"  y="28" width="118" height="52" rx="8" fill="#EEEDFE" stroke="#534AB7" stroke-width="0.5"/>
<text class="th" x="77"  y="48" text-anchor="middle" dominant-baseline="central" fill="#26215C">Sender</text>
<text class="ts" x="77"  y="66" text-anchor="middle" dominant-baseline="central" fill="#534AB7">Process</text>

<rect x="176" y="28" width="118" height="52" rx="8" fill="#E1F5EE" stroke="#0F6E56" stroke-width="0.5"/>
<text class="th" x="235" y="48" text-anchor="middle" dominant-baseline="central" fill="#04342C">IpcService</text>
<text class="ts" x="235" y="66" text-anchor="middle" dominant-baseline="central" fill="#0F6E56">IPC</text>

<rect x="344" y="28" width="148" height="52" rx="8" fill="#FAEEDA" stroke="#854F0B" stroke-width="0.5"/>
<text class="th" x="418" y="48" text-anchor="middle" dominant-baseline="central" fill="#412402">QuantumScheduler</text>
<text class="ts" x="418" y="66" text-anchor="middle" dominant-baseline="central" fill="#854F0B">SCHED</text>

<rect x="532" y="28" width="130" height="52" rx="8" fill="#FAECE7" stroke="#993C1D" stroke-width="0.5"/>
<text class="th" x="597" y="48" text-anchor="middle" dominant-baseline="central" fill="#4A1B0C">Channel</text>
<text class="ts" x="597" y="66" text-anchor="middle" dominant-baseline="central" fill="#993C1D">full</text>

<!-- ── Lifelines ── -->
<line x1="77"  y1="80" x2="77"  y2="1040" class="lifeline"/>
<line x1="235" y1="80" x2="235" y2="1040" class="lifeline"/>
<line x1="418" y1="80" x2="418" y2="1040" class="lifeline"/>
<line x1="597" y1="80" x2="597" y2="1040" class="lifeline"/>

<!-- 1. P → IPC: send(msg, cap) -->
<line x1="77" y1="130" x2="229" y2="130" class="solid" marker-end="url(#arrow)"/>
<text class="ts" x="153" y="120" text-anchor="middle">send(msg, cap)</text>

<!-- 2. IPC → CH: lock channel -->
<line x1="235" y1="190" x2="591" y2="190" class="solid" marker-end="url(#arrow)"/>
<text class="ts" x="413" y="180" text-anchor="middle">lock channel</text>

<!-- 3. CH ⇢ IPC: Defer(WaitForCapacity) -->
<line x1="591" y1="250" x2="241" y2="250" class="dashed" marker-end="url(#arrow)"/>
<text class="ts" x="413" y="240" text-anchor="middle">Defer(WaitForCapacity)</text>

<!-- 4. IPC → SCHED: prepare_block_on -->
<line x1="235" y1="325" x2="412" y2="325" class="solid" marker-end="url(#arrow)"/>
<text class="ts" x="323" y="308" text-anchor="middle">prepare_block_on(</text>
<text class="ts" x="323" y="323" text-anchor="middle">W_capacity(N),</text>
<text class="ts" x="323" y="338" text-anchor="middle">WaitingOnChannel)</text>

<!-- 5. SCHED ⇢ IPC: Ok(BlockOnPlan) -->
<line x1="412" y1="385" x2="241" y2="385" class="dashed" marker-end="url(#arrow)"/>
<text class="ts" x="323" y="375" text-anchor="middle">Ok(BlockOnPlan)</text>

<!-- 6. IPC → CH: release channel lock -->
<line x1="235" y1="440" x2="591" y2="440" class="solid" marker-end="url(#arrow)"/>
<text class="ts" x="413" y="430" text-anchor="middle">release channel lock</text>

<!-- 7. IPC → SCHED: commit_block(plan) -->
<line x1="235" y1="495" x2="412" y2="495" class="solid" marker-end="url(#arrow)"/>
<text class="ts" x="323" y="485" text-anchor="middle">commit_block(plan)</text>

<!-- NOTE: Sender suspended -->
<rect x="18" y="522" width="510" height="34" rx="6" fill="#F5F3FF" stroke="#AFA9EC" stroke-width="0.5"/>
<text class="ts" x="263" y="539" text-anchor="middle" dominant-baseline="central" style="fill:#3C3489;font-weight:500">Sender suspended — context switched out</text>

<!-- NOTE: Receiver drains (over CH column) -->
<rect x="530" y="578" width="132" height="44" rx="6" fill="#FEF3EC" stroke="#EF9F27" stroke-width="0.5"/>
<text class="ts" x="596" y="594" text-anchor="middle" dominant-baseline="central" style="fill:#633806">Receiver drains</text>
<text class="ts" x="596" y="610" text-anchor="middle" dominant-baseline="central" style="fill:#633806">one message</text>

<!-- 8. CH → SCHED: wake_one_sender -->
<line x1="591" y1="642" x2="424" y2="642" class="solid" marker-end="url(#arrow)"/>
<text class="ts" x="507" y="632" text-anchor="middle">wake_one_sender → wakes P</text>

<!-- NOTE: Sender resumed -->
<rect x="18" y="668" width="510" height="34" rx="6" fill="#F5F3FF" stroke="#AFA9EC" stroke-width="0.5"/>
<text class="ts" x="263" y="685" text-anchor="middle" dominant-baseline="central" style="fill:#3C3489;font-weight:500">Sender resumed</text>

<!-- 9. P → IPC: retry loop — lock channel -->
<line x1="77" y1="730" x2="229" y2="730" class="solid" marker-end="url(#arrow)"/>
<text class="ts" x="153" y="718" text-anchor="middle">retry loop —</text>
<text class="ts" x="153" y="733" text-anchor="middle">lock channel</text>

<!-- 10. CH ⇢ IPC: Commit -->
<line x1="591" y1="790" x2="241" y2="790" class="dashed" marker-end="url(#arrow)"/>
<text class="ts" x="413" y="780" text-anchor="middle">Commit</text>

<!-- 11. IPC ⇢ P: Ok(()) -->
<line x1="229" y1="845" x2="83" y2="845" class="dashed" marker-end="url(#arrow)"/>
<text class="ts" x="153" y="835" text-anchor="middle">Ok(())</text>

<!-- Bottom participant labels -->
<text class="ts" x="77"  y="1060" text-anchor="middle" fill="#999">P</text>
<text class="ts" x="235" y="1060" text-anchor="middle" fill="#999">IPC</text>
<text class="ts" x="418" y="1060" text-anchor="middle" fill="#999">SCHED</text>
<text class="ts" x="597" y="1060" text-anchor="middle" fill="#999">CH</text>
</svg>